<svg width="20" height="20" viewBox="0 0 20 20" fill="none" xmlns="http://www.w3.org/2000/svg">
<path d="M16.7773 16.5398L11.8867 8.85391L16.7125 3.54531C16.8216 3.42228 16.8779 3.2612 16.869 3.09697C16.8602 2.93275 16.787 2.77862 16.6653 2.66801C16.5436 2.5574 16.3832 2.49923 16.2188 2.50609C16.0545 2.51296 15.8995 2.58431 15.7875 2.70469L11.1906 7.76094L8.02732 2.78984C7.97091 2.70106 7.89301 2.62795 7.80082 2.57728C7.70864 2.52661 7.60516 2.50003 7.49997 2.5H3.74997C3.63791 2.49995 3.5279 2.53002 3.43145 2.58708C3.335 2.64413 3.25567 2.72607 3.20175 2.82431C3.14784 2.92255 3.12133 3.03348 3.12501 3.14548C3.12868 3.25749 3.1624 3.36644 3.22263 3.46094L8.11326 11.1461L3.28747 16.4586C3.23112 16.5191 3.18734 16.5902 3.15868 16.6678C3.13001 16.7454 3.11703 16.8279 3.12048 16.9105C3.12393 16.9932 3.14375 17.0743 3.17879 17.1492C3.21383 17.2241 3.26338 17.2914 3.32459 17.347C3.3858 17.4026 3.45744 17.4455 3.53536 17.4733C3.61327 17.501 3.69592 17.513 3.77851 17.5085C3.8611 17.5041 3.94198 17.4833 4.01647 17.4474C4.09097 17.4114 4.15759 17.3611 4.21247 17.2992L8.80935 12.243L11.9726 17.2141C12.0295 17.3021 12.1076 17.3745 12.1998 17.4244C12.2919 17.4744 12.3951 17.5004 12.5 17.5H16.25C16.3619 17.5 16.4718 17.4699 16.5681 17.4128C16.6645 17.3558 16.7437 17.274 16.7976 17.1759C16.8515 17.0778 16.878 16.967 16.8745 16.8551C16.8709 16.7432 16.8373 16.6343 16.7773 16.5398ZM12.8429 16.25L4.88826 3.75H7.15388L15.1117 16.25H12.8429Z" fill="#141414"/>
</svg>
